# xmcd CD database file generated by LOLA_Freedb v0.9beta0
# 
# Track frame offsets:
#      150
#      24350
#      41317
#      56237
#      69935
#      84925
#      96640
#      112222
#      127222
#      142597
#      157497
#      170467
#      182492
#      196947
#      212855
#      225830
# 
# Disc length: 3152 seconds
# 
# Revision: 2 
# Processed by: cddbd v1.5.2PL0 Copyright (c) Steve Scherf et al.
# Submitted via: LOLA_Freedb v0.9beta0
# 
DISCID=dc0c4e10
DTITLE=Various Artist - Alpen-Hüttenrock CD 1/3
DYEAR=1900
DGENRE=Country
TTITLE0=Alpinkatzen Feat. Hubert Von Goisern - Kren Und Speck
TTITLE1=Steiermark Quintett - Matterhorn
TTITLE2=Atlantis - Du Mei Tirolerin
TTITLE3=Gaby Und Karin - Der Jodel Rock
TTITLE4=Schwarzwald Sextett - Tini Im Bikini
TTITLE5=Original Mölltaler Vagabunden - Alpen Rock N Roll
TTITLE6=Banzgauer Zipfelkappen - Rock N Roll Im Banzgau
TTITLE7=Maja Brunner - Du8 Bist Ein Wahrer Gentlemen
TTITLE8=Die Mooskirchner - Rock N Roll Am Bauernhof
TTITLE9=Maria Mathis - Sax and Jodler
TTITLE10=Zillertaler Gipfelstürmer - Auf Der Alm
TTITLE11=Kapelle Oberalp and The Lollipops - Schwiizer Alpenrock-Melodie
TTITLE12=Gradl Buam - Dackel Berry
TTITLE13=Kapruner Spatzen - Glemmertal So Schön
TTITLE14=Die Heimatländer - So A Landpartie
TTITLE15=Superländlerkapelle - Rock N Roll Schottisch
EXTD=ID3G: 2
EXTT0=
EXTT1=
EXTT2=
EXTT3=
EXTT4=
EXTT5=
EXTT6=
EXTT7=
EXTT8=
EXTT9=
EXTT10=
EXTT11=
EXTT12=
EXTT13=
EXTT14=
EXTT15=
PLAYORDER=
